# xmcd CD database file generated by OrangeCD 5.1
#
# Track frame offsets:
#	150
#	30237
#	50149
#	71352
#	105181
#	125231
#	143045
#	176836
#	207143
#
# Disc length: 3567 seconds
#
# Revision: 0
# Processed by: cddbd v1.5.1PL0 Copyright (c) Steve Scherf et al.
# Submitted via: OrangeCD 5.1
#
DISCID=7b0ded09
DTITLE=Los Lonely Boys - Ft Worth 1/9/04
DYEAR=1900
DGENRE=
TTITLE0=Crazy Dream
TTITLE1=Baby, You're Going to See
TTITLE2=Nobody Else
TTITLE3=Hollywood
TTITLE4=Tell Me Why
TTITLE5=I am the Man to Beat
TTITLE6=Superstition
TTITLE7=Velvet Sky
TTITLE8=Onda
EXTD=
EXTT0=
EXTT1=
EXTT2=
EXTT3=
EXTT4=
EXTT5=
EXTT6=
EXTT7=
EXTT8=
PLAYORDER=
